<mxfile host="app.diagrams.net" modified="2022-02-10T00:41:41.349Z" agent="5.0 (Windows NT 10.0; Win64; x64) AppleWebKit/537.36 (KHTML, like Gecko) Chrome/98.0.4758.82 Safari/537.36" etag="kaNiDcDHv5zgHteKQFOj" version="16.2.4" type="github">
  <diagram id="AtW3LyJ-TJ9czZAQXqiL" name="Page-1">
    <mxGraphModel dx="1102" dy="582" grid="1" gridSize="10" guides="1" tooltips="1" connect="1" arrows="1" fold="1" page="1" pageScale="1" pageWidth="827" pageHeight="1169" background="#DAD2D8" math="0" shadow="0">
      <root>
        <mxCell id="0" />
        <mxCell id="1" parent="0" />
        <mxCell id="WnMKXK5JSYp_ZQ4_N_Fy-1" value="Enregistre dans des fichiers:&lt;br&gt;-les données des capteurs (température &amp;amp; humidié) chaque 1s&lt;br&gt;-les données de raspberry (température, mémoire &amp;amp; CPU)" style="rounded=1;whiteSpace=wrap;html=1;fillColor=#FAE5C7;strokeColor=#0F8B8D;fontColor=#143642;" vertex="1" parent="1">
          <mxGeometry x="170" y="225" width="220" height="90" as="geometry" />
        </mxCell>
        <mxCell id="WnMKXK5JSYp_ZQ4_N_Fy-3" value="RED-NODE" style="text;html=1;strokeColor=none;fillColor=none;align=center;verticalAlign=middle;whiteSpace=wrap;rounded=0;fontColor=#143642;" vertex="1" parent="1">
          <mxGeometry x="237.5" y="195" width="85" height="30" as="geometry" />
        </mxCell>
        <mxCell id="WnMKXK5JSYp_ZQ4_N_Fy-4" value="Chaque seconde, après connexion à Odoo distant, ce programme:&lt;br&gt;-lit les données enregistrées&amp;nbsp;&lt;br&gt;-enregistre dans la base de données de Odoo distant" style="rounded=1;whiteSpace=wrap;html=1;fillColor=#FAE5C7;strokeColor=#0F8B8D;fontColor=#143642;" vertex="1" parent="1">
          <mxGeometry x="540" y="220" width="240" height="100" as="geometry" />
        </mxCell>
        <mxCell id="WnMKXK5JSYp_ZQ4_N_Fy-5" value="odoo_web_service.py" style="text;html=1;strokeColor=none;fillColor=none;align=center;verticalAlign=middle;whiteSpace=wrap;rounded=0;fontColor=#143642;" vertex="1" parent="1">
          <mxGeometry x="620" y="190" width="100" height="30" as="geometry" />
        </mxCell>
        <mxCell id="WnMKXK5JSYp_ZQ4_N_Fy-6" value="" style="shape=orEllipse;perimeter=ellipsePerimeter;whiteSpace=wrap;html=1;backgroundOutline=1;fillColor=#FAE5C7;strokeColor=#0F8B8D;fontColor=#143642;" vertex="1" parent="1">
          <mxGeometry x="120" y="90" width="30" height="30" as="geometry" />
        </mxCell>
        <mxCell id="WnMKXK5JSYp_ZQ4_N_Fy-22" value="Capteur 1" style="text;html=1;strokeColor=none;fillColor=none;align=center;verticalAlign=middle;whiteSpace=wrap;rounded=0;fontColor=#143642;" vertex="1" parent="1">
          <mxGeometry x="40" y="80" width="60" height="30" as="geometry" />
        </mxCell>
        <mxCell id="WnMKXK5JSYp_ZQ4_N_Fy-23" value="" style="shape=flexArrow;endArrow=classic;startArrow=classic;html=1;rounded=0;exitX=1;exitY=0.5;exitDx=0;exitDy=0;entryX=0;entryY=0.5;entryDx=0;entryDy=0;labelBackgroundColor=#DAD2D8;strokeColor=#A8201A;fontColor=#143642;" edge="1" parent="1" source="WnMKXK5JSYp_ZQ4_N_Fy-1" target="WnMKXK5JSYp_ZQ4_N_Fy-4">
          <mxGeometry width="100" height="100" relative="1" as="geometry">
            <mxPoint x="410" y="330" as="sourcePoint" />
            <mxPoint x="530" y="260" as="targetPoint" />
          </mxGeometry>
        </mxCell>
        <mxCell id="WnMKXK5JSYp_ZQ4_N_Fy-24" value="- interface ergonomique&lt;br&gt;- permet de visualiser les données des capteurs instantanément&lt;br&gt;- accès sécurisé avec des permissions&lt;br&gt;- multiutilisateurs" style="rounded=1;whiteSpace=wrap;html=1;fillColor=#FAE5C7;strokeColor=#0F8B8D;fontColor=#143642;" vertex="1" parent="1">
          <mxGeometry x="497" y="500" width="236" height="100" as="geometry" />
        </mxCell>
        <mxCell id="WnMKXK5JSYp_ZQ4_N_Fy-25" value="Odoo distant" style="text;html=1;strokeColor=none;fillColor=none;align=center;verticalAlign=middle;whiteSpace=wrap;rounded=0;fontColor=#143642;" vertex="1" parent="1">
          <mxGeometry x="570" y="470" width="90" height="30" as="geometry" />
        </mxCell>
        <mxCell id="WnMKXK5JSYp_ZQ4_N_Fy-26" value="Base de données distante" style="rounded=1;whiteSpace=wrap;html=1;fillColor=#FAE5C7;strokeColor=#0F8B8D;fontColor=#143642;" vertex="1" parent="1">
          <mxGeometry x="240" y="390" width="120" height="60" as="geometry" />
        </mxCell>
        <mxCell id="WnMKXK5JSYp_ZQ4_N_Fy-27" value="PostgreSQL" style="text;html=1;strokeColor=none;fillColor=none;align=center;verticalAlign=middle;whiteSpace=wrap;rounded=0;fontColor=#143642;" vertex="1" parent="1">
          <mxGeometry x="270" y="360" width="60" height="30" as="geometry" />
        </mxCell>
        <mxCell id="WnMKXK5JSYp_ZQ4_N_Fy-28" value="" style="shape=flexArrow;endArrow=classic;startArrow=classic;html=1;rounded=0;entryX=0.5;entryY=1;entryDx=0;entryDy=0;exitX=1;exitY=0.25;exitDx=0;exitDy=0;labelBackgroundColor=#DAD2D8;strokeColor=#A8201A;fontColor=#143642;" edge="1" parent="1" source="WnMKXK5JSYp_ZQ4_N_Fy-26" target="WnMKXK5JSYp_ZQ4_N_Fy-4">
          <mxGeometry width="100" height="100" relative="1" as="geometry">
            <mxPoint x="530" y="420" as="sourcePoint" />
            <mxPoint x="630" y="320" as="targetPoint" />
          </mxGeometry>
        </mxCell>
        <mxCell id="WnMKXK5JSYp_ZQ4_N_Fy-29" value="" style="shape=flexArrow;endArrow=classic;startArrow=classic;html=1;rounded=0;entryX=0.5;entryY=1;entryDx=0;entryDy=0;exitX=0;exitY=0.25;exitDx=0;exitDy=0;labelBackgroundColor=#DAD2D8;strokeColor=#A8201A;fontColor=#143642;" edge="1" parent="1" source="WnMKXK5JSYp_ZQ4_N_Fy-24" target="WnMKXK5JSYp_ZQ4_N_Fy-26">
          <mxGeometry width="100" height="100" relative="1" as="geometry">
            <mxPoint x="360" y="570" as="sourcePoint" />
            <mxPoint x="460" y="470" as="targetPoint" />
          </mxGeometry>
        </mxCell>
        <mxCell id="WnMKXK5JSYp_ZQ4_N_Fy-31" value="" style="shape=orEllipse;perimeter=ellipsePerimeter;whiteSpace=wrap;html=1;backgroundOutline=1;fillColor=#FAE5C7;strokeColor=#0F8B8D;fontColor=#143642;" vertex="1" parent="1">
          <mxGeometry x="80" y="110" width="30" height="30" as="geometry" />
        </mxCell>
        <mxCell id="WnMKXK5JSYp_ZQ4_N_Fy-32" value="Capteur 2" style="text;html=1;strokeColor=none;fillColor=none;align=center;verticalAlign=middle;whiteSpace=wrap;rounded=0;fontColor=#143642;" vertex="1" parent="1">
          <mxGeometry x="110" y="60" width="60" height="30" as="geometry" />
        </mxCell>
        <mxCell id="WnMKXK5JSYp_ZQ4_N_Fy-38" value="" style="endArrow=classic;html=1;rounded=0;entryX=0.25;entryY=0;entryDx=0;entryDy=0;exitX=1;exitY=1;exitDx=0;exitDy=0;labelBackgroundColor=#DAD2D8;strokeColor=#A8201A;fontColor=#143642;" edge="1" parent="1" source="WnMKXK5JSYp_ZQ4_N_Fy-6" target="WnMKXK5JSYp_ZQ4_N_Fy-1">
          <mxGeometry width="50" height="50" relative="1" as="geometry">
            <mxPoint x="150" y="170" as="sourcePoint" />
            <mxPoint x="200" y="120" as="targetPoint" />
          </mxGeometry>
        </mxCell>
        <mxCell id="WnMKXK5JSYp_ZQ4_N_Fy-39" value="" style="endArrow=classic;html=1;rounded=0;exitX=1;exitY=1;exitDx=0;exitDy=0;labelBackgroundColor=#DAD2D8;strokeColor=#A8201A;fontColor=#143642;" edge="1" parent="1" source="WnMKXK5JSYp_ZQ4_N_Fy-31">
          <mxGeometry width="50" height="50" relative="1" as="geometry">
            <mxPoint x="60" y="210" as="sourcePoint" />
            <mxPoint x="180" y="230" as="targetPoint" />
          </mxGeometry>
        </mxCell>
        <mxCell id="WnMKXK5JSYp_ZQ4_N_Fy-40" value="" style="endArrow=classic;html=1;rounded=0;exitX=0.75;exitY=1;exitDx=0;exitDy=0;entryX=0.5;entryY=0;entryDx=0;entryDy=0;labelBackgroundColor=#DAD2D8;strokeColor=#A8201A;fontColor=#143642;" edge="1" parent="1" source="WnMKXK5JSYp_ZQ4_N_Fy-24" target="WnMKXK5JSYp_ZQ4_N_Fy-44">
          <mxGeometry width="50" height="50" relative="1" as="geometry">
            <mxPoint x="700" y="690" as="sourcePoint" />
            <mxPoint x="720" y="690" as="targetPoint" />
          </mxGeometry>
        </mxCell>
        <mxCell id="WnMKXK5JSYp_ZQ4_N_Fy-41" value="" style="endArrow=classic;html=1;rounded=0;exitX=0.25;exitY=1;exitDx=0;exitDy=0;entryX=0.5;entryY=0;entryDx=0;entryDy=0;labelBackgroundColor=#DAD2D8;strokeColor=#A8201A;fontColor=#143642;" edge="1" parent="1" source="WnMKXK5JSYp_ZQ4_N_Fy-24" target="WnMKXK5JSYp_ZQ4_N_Fy-42">
          <mxGeometry width="50" height="50" relative="1" as="geometry">
            <mxPoint x="520" y="720" as="sourcePoint" />
            <mxPoint x="520" y="690" as="targetPoint" />
          </mxGeometry>
        </mxCell>
        <mxCell id="WnMKXK5JSYp_ZQ4_N_Fy-42" value="Génére et envoie des rapports" style="ellipse;whiteSpace=wrap;html=1;fillColor=#FAE5C7;strokeColor=#0F8B8D;fontColor=#143642;" vertex="1" parent="1">
          <mxGeometry x="460" y="690" width="120" height="80" as="geometry" />
        </mxCell>
        <mxCell id="WnMKXK5JSYp_ZQ4_N_Fy-44" value="Gestion des alertes" style="ellipse;whiteSpace=wrap;html=1;fillColor=#FAE5C7;strokeColor=#0F8B8D;fontColor=#143642;" vertex="1" parent="1">
          <mxGeometry x="670" y="690" width="120" height="80" as="geometry" />
        </mxCell>
        <mxCell id="WnMKXK5JSYp_ZQ4_N_Fy-45" value="&lt;font style=&quot;font-size: 28px&quot;&gt;Capteurs Box&lt;/font&gt;" style="rounded=1;whiteSpace=wrap;html=1;fillColor=#e1d5e7;strokeColor=#9673a6;" vertex="1" parent="1">
          <mxGeometry x="330" y="10" width="196" height="60" as="geometry" />
        </mxCell>
      </root>
    </mxGraphModel>
  </diagram>
</mxfile>
